# xmcd
#
# Track frame offsets: 
#        150
#        16109
#        31876
#        43666
#        56419
#        71922
#        85882
#        103049
#        115900
#        130792
#        150335
#        166033
#
# Disc length: 2666 seconds
#
# Revision: 0
# Processed by: cddbd v1.5.2PL0 Copyright (c) Steve Scherf et al.
# Submitted via: ExactAudioCopy v0.99pb5
#
DISCID=8c0a680c
DTITLE=Klapa Luka Ploce - Skatula od hitova 2
DYEAR=2009
DGENRE=country
TTITLE0=Ella ee
TTITLE1=Ako me nosis na dusi
TTITLE2=Stojin' na kantunu
TTITLE3=Gdje god da podes
TTITLE4=Volim i postojim
TTITLE5=Cvijet ceznje
TTITLE6=Dobro mi dosel prijatel
TTITLE7=Bodulska balada
TTITLE8=Stari dida moj
TTITLE9=Od kamena covik
TTITLE10=Ploce grade
TTITLE11=Lindo
EXTD=
EXTT0=
EXTT1=
EXTT2=
EXTT3=
EXTT4=
EXTT5=
EXTT6=
EXTT7=
EXTT8=
EXTT9=
EXTT10=
EXTT11=
PLAYORDER=
